<?xml version="1.0" encoding="UTF-8" standalone="no"?>
<!DOCTYPE svg PUBLIC "-//W3C//DTD SVG 1.1//EN" "http://www.w3.org/Graphics/SVG/1.1/DTD/svg11.dtd">
<svg width="144pt" height="144pt" viewBox="0 0 144 144" overflow="visible" version="1.1" xmlns="http://www.w3.org/2000/svg">
  <path d="M78.32359,104.1595 L79.20233,104.1595 L79.20233,108.6323 L78.75841,108.6323 L78.75841,104.5973 L78.05602,104.5973 z" stroke="Black" stroke-width="0" fill="#FFFFFF" fill-opacity="1.0" />
  <path d="M76.38976,107.9633 L76.65429,108.0728 L76.76376,108.3404 L76.65429,108.6064 L76.38976,108.7174 L76.12522,108.6064 L76.01576,108.3404 L76.12522,108.0728 z" stroke="Black" stroke-width="0" fill="#FFFFFF" fill-opacity="1.0" />
  <path d="M72.71668,105.5582 L72.28795,105.5582 C72.30011,105.1172 72.44759,104.755 72.73036,104.4718 C73.01314,104.1886 73.3623,104.047 73.77785,104.047 C74.18935,104.047 74.5223,104.1798 74.7767,104.4455 C75.03111,104.7111 75.1583,105.0245 75.1583,105.3854 L74.97636,106.0988 L74.26982,107.0007 L73.15562,108.2005 L75.21912,108.2005 L75.21912,108.6323 L72.18153,108.6323 L73.89036,106.7855 L74.5669,105.9592 L74.7235,105.3917 C74.7235,105.1401 74.62974,104.9236 74.44224,104.742 C74.25473,104.5604 74.02516,104.4696 73.75353,104.4696 C73.46771,104.4696 73.23004,104.5649 73.0405,104.7555 C72.85098,104.946 72.74303,105.2136 72.71668,105.5582 z" stroke="Black" stroke-width="0" fill="#FFFFFF" fill-opacity="1.0" />
  <path d="M68.74258,106.3974 C68.74258,105.8075 68.80592,105.3514 68.93262,105.0291 C69.05931,104.7068 69.2382,104.4625 69.46929,104.2963 C69.70038,104.1301 69.95883,104.047 70.24465,104.047 C70.53452,104.047 70.79703,104.1306 71.03217,104.2978 C71.26731,104.4651 71.4533,104.7159 71.59013,105.0504 C71.72695,105.3849 71.79537,105.8339 71.79537,106.3974 C71.79537,106.9589 71.72797,107.4059 71.59317,107.7383 C71.45837,108.0708 71.27238,108.3216 71.03521,108.4909 C70.79804,108.6601 70.53452,108.7448 70.24465,108.7448 C69.95883,108.7448 69.70139,108.6627 69.47233,108.4985 C69.24327,108.3343 69.06438,108.0895 68.93566,107.7642 C68.80694,107.4388 68.74258,106.9832 68.74258,106.3974 z M69.16523,106.405 L69.30054,107.5507 L69.70038,108.1395 L70.25985,108.3404 L70.81628,108.1441 L71.20853,107.5553 L71.37576,106.405 L71.22677,105.2989 L70.81477,104.669 L70.25985,104.4696 L69.70038,104.669 L69.30206,105.2563 z" stroke="Black" stroke-width="0" fill="#FFFFFF" fill-opacity="1.0" />
  <path d="M67.7635,107.9633 L68.02803,108.0728 L68.1375,108.3404 L68.02803,108.6064 L67.7635,108.7174 L67.49896,108.6064 L67.3895,108.3404 L67.49896,108.0728 z" stroke="Black" stroke-width="0" fill="#FFFFFF" fill-opacity="1.0" />
  <path d="M64.52219,104.1595 L65.40093,104.1595 L65.40093,108.6323 L64.957,108.6323 L64.957,104.5973 L64.25462,104.5973 z" stroke="Black" stroke-width="0" fill="#FFFFFF" fill-opacity="1.0" />
  <path d="M61.07108,104.1595 L61.94982,104.1595 L61.94982,108.6323 L61.50589,108.6323 L61.50589,104.5973 L60.8035,104.5973 z" stroke="Black" stroke-width="0" fill="#FFFFFF" fill-opacity="1.0" />
  <path d="M88.35635,117.0839 L90.91959,117.0839 L90.91959,117.5217 L88.80332,117.5217 L88.80332,118.9235 L90.90135,118.9235 L90.90135,119.3613 L88.80332,119.3613 L88.80332,121.1188 L90.90135,121.1188 L90.90135,121.5566 L88.35635,121.5566 z" stroke="Black" stroke-width="0" fill="#FFFFFF" fill-opacity="1.0" />
  <path d="M83.7498,121.5566 L83.7498,117.0839 L83.8471,117.0839 L86.82388,120.5125 L86.82388,117.0839 L87.26476,117.0839 L87.26476,121.5566 L87.16442,121.5566 L84.21198,118.1698 L84.21198,121.5566 z" stroke="Black" stroke-width="0" fill="#FFFFFF" fill-opacity="1.0" />
  <path d="M80.6514,120.7357 L81.06188,120.9303 L80.44464,122.0796 L80.14362,121.9519 z" stroke="Black" stroke-width="0" fill="#FFFFFF" fill-opacity="1.0" />
  <path d="M75.69518,121.5566 L75.69518,117.0839 L75.79248,117.0839 L78.76925,120.5125 L78.76925,117.0839 L79.21014,117.0839 L79.21014,121.5566 L79.1098,121.5566 L76.15736,118.1698 L76.15736,121.5566 z" stroke="Black" stroke-width="0" fill="#FFFFFF" fill-opacity="1.0" />
  <path d="M72.8157,117.0839 L73.26268,117.0839 L73.26268,121.1249 L74.98367,121.1249 L74.98367,121.5566 L72.8157,121.5566 z" stroke="Black" stroke-width="0" fill="#FFFFFF" fill-opacity="1.0" />
  <path d="M69.53335,116.9714 C70.21081,116.9714 70.77773,117.1974 71.23413,117.6494 C71.69052,118.1015 71.91872,118.6579 71.91872,119.3187 C71.91872,119.9735 71.69103,120.5289 71.23565,120.985 C70.78027,121.4411 70.225,121.6691 69.56984,121.6691 C68.90657,121.6691 68.34674,121.4421 67.89034,120.988 C67.43394,120.534 67.20575,119.9846 67.20575,119.34 C67.20575,118.9103 67.3097,118.512 67.5176,118.1451 C67.72551,117.7782 68.00897,117.4908 68.368,117.283 C68.72704,117.0753 69.11549,116.9714 69.53335,116.9714 z M69.55312,117.4062 C69.22216,117.4062 68.90847,117.4924 68.61204,117.6648 C68.31561,117.8373 68.08415,118.0696 67.91766,118.3617 C67.75117,118.6538 67.66792,118.9794 67.66792,119.3385 C67.66792,119.87 67.85217,120.3189 68.22068,120.6851 C68.58918,121.0512 69.03333,121.2343 69.55312,121.2343 C69.90028,121.2343 70.22157,121.1501 70.51699,120.9818 C70.81241,120.8134 71.04285,120.5831 71.20833,120.291 C71.37381,119.9989 71.45654,119.6743 71.45654,119.3172 C71.45654,118.9622 71.37381,118.6412 71.20833,118.3541 C71.04285,118.067 70.80988,117.8373 70.50939,117.6648 C70.20891,117.4924 69.89014,117.4062 69.55312,117.4062 z" stroke="Black" stroke-width="0" fill="#FFFFFF" fill-opacity="1.0" />
  <path d="M66.50641,117.914 L66.15369,118.1846 L65.45283,117.6084 L64.55432,117.4123 C64.19756,117.4123 63.86714,117.4979 63.56308,117.6692 C63.25902,117.8405 63.02337,118.0706 62.85613,118.3594 C62.6889,118.6483 62.60528,118.9731 62.60528,119.3339 C62.60528,119.8792 62.79228,120.3343 63.16628,120.6992 C63.54028,121.0641 64.01208,121.2465 64.58169,121.2465 C65.20806,121.2465 65.73206,121.0012 66.15369,120.5107 L66.50641,120.7782 C66.28342,121.062 66.00521,121.2815 65.67175,121.4365 C65.33829,121.5916 64.96582,121.6691 64.55432,121.6691 C63.77187,121.6691 63.15462,121.4087 62.70258,120.8877 C62.32352,120.4478 62.13398,119.9167 62.13398,119.2944 C62.13398,118.6397 62.36355,118.0888 62.82269,117.6418 C63.28182,117.1949 63.85701,116.9714 64.54824,116.9714 C64.96582,116.9714 65.34286,117.054 65.67935,117.2192 C66.01585,117.3844 66.29153,117.616 66.50641,117.914 z" stroke="Black" stroke-width="0" fill="#FFFFFF" fill-opacity="1.0" />
  <path d="M57.73724,121.5566 L57.73724,117.0839 L57.83454,117.0839 L60.81131,120.5125 L60.81131,117.0839 L61.2522,117.0839 L61.2522,121.5566 L61.15186,121.5566 L58.19941,118.1698 L58.19941,121.5566 z" stroke="Black" stroke-width="0" fill="#FFFFFF" fill-opacity="1.0" />
  <path d="M56.26254,117.0839 L56.70951,117.0839 L56.70951,121.5566 L56.26254,121.5566 z" stroke="Black" stroke-width="0" fill="#FFFFFF" fill-opacity="1.0" />
  <path d="M53.44995,117.0839 L53.89693,117.0839 L53.89693,121.1249 L55.61792,121.1249 L55.61792,121.5566 L53.44995,121.5566 z" stroke="Black" stroke-width="0" fill="#FFFFFF" fill-opacity="1.0" />
  <path d="M93.89362,44.93227 L98.50164,44.93227 C101.4719,44.93227 103.6789,45.29866 105.1229,46.03146 C106.5669,46.76425 107.756,47.95617 108.6903,49.60722 C109.6246,51.25827 110.0918,53.18612 110.0918,55.39077 C110.0918,56.95815 109.8303,58.39898 109.3074,59.71327 C108.7844,61.02755 108.0628,62.11803 107.1425,62.98469 C106.2221,63.85135 105.2251,64.45062 104.1513,64.7825 C103.0776,65.11439 101.2174,65.28033 98.57066,65.28033 L93.89362,65.28033 z M96.30957,47.34821 L96.30957,62.86438 L98.57066,62.86438 L101.7358,62.74809 L102.797,62.61633 L103.4384,62.4735 L104.4611,62.01282 L105.4889,61.22633 L106.3586,60.18302 L107.0673,58.81953 C107.4962,57.73107 107.6687,56.56141 107.676,55.39069 L107.3964,52.86419 L106.5898,50.79594 L105.3933,49.18473 L104.0303,48.18689 L103.1977,47.87292 L101.9866,47.60623 L98.50164,47.34821 z" stroke="Black" stroke-width="0" fill="#FFFFFF" fill-opacity="1.0" />
  <path d="M61.89982,61.5545 C60.4744,62.95475 59.12747,63.92578 57.85904,64.4676 C56.5906,65.00942 55.14299,65.28033 53.51621,65.28033 C50.517,65.28033 48.06193,64.32552 46.15099,62.41591 C44.24006,60.5063 43.28459,58.05851 43.28459,55.07255 C43.28459,53.14108 43.71976,51.42488 44.59012,49.92395 C45.46047,48.42303 46.70672,47.21586 48.32886,46.30245 C49.951,45.38904 51.69801,44.93234 53.56986,44.93234 C55.1622,44.93234 56.69525,45.26915 58.16902,45.94278 C59.6428,46.61641 60.91289,47.57519 61.9793,48.81912 L60.22364,50.48316 L60.14512,50.39156 C59.33664,49.44427 58.29689,48.65882 57.16469,48.14008 C56.00983,47.61222 54.81155,47.34829 53.56986,47.34829 C52.1203,47.34829 50.76842,47.70139 49.51424,48.4076 L47.85709,49.62411 L46.67975,51.13452 L45.94754,52.935 L45.70152,55.06942 C45.70013,56.15974 45.85247,57.2607 46.24979,58.27033 C46.60795,59.18044 47.16517,60.01633 47.85678,60.70973 L49.00954,61.6483 L50.30415,62.3144 C51.32296,62.71185 52.41633,62.86164 53.51504,62.86417 C54.67817,62.86684 55.84728,62.7045 56.90577,62.24414 L58.40983,61.37026 L60.2168,59.82117 z" stroke="Black" stroke-width="0" fill="#FFFFFF" fill-opacity="1.0" />
  <path d="M77.58936,63.79038 L68.90528,55.1063 C66.95584,53.51574 66.95584,49.50273 68.90528,47.91217 C70.49584,45.96273 74.50885,45.96273 76.09941,47.91217 L77.58936,49.40213 L79.07932,47.91217 C80.66987,45.96273 84.68288,45.96273 86.27344,47.91217 C88.22288,49.50273 88.22288,53.51574 86.27344,55.1063 z M76.36913,51.59855 L74.39108,49.62051 C73.55592,48.5969 71.44878,48.5969 70.61362,49.62051 C69.59001,50.45567 69.59001,52.56281 70.61362,53.39797 L77.58936,60.37371 L84.56511,53.39797 C85.58871,52.56281 85.58871,50.45567 84.56511,49.62051 C83.72994,48.5969 81.62281,48.5969 80.78764,49.62051 L78.8096,51.59855 C78.27003,52.25986 76.90869,52.25986 76.36913,51.59855 z" stroke="Black" stroke-width="0" fill="#FFFFFF" fill-opacity="1.0" />
  <path d="M82.65943,106.6761 L82.20291,106.7562 C81.84747,106.7562 81.54586,106.628 81.29807,106.3716 C81.05027,106.1151 80.92637,105.7994 80.92637,105.4244 L81.10577,104.7281 L81.61507,104.2325 L82.32202,104.047 L83.00768,104.2264 L83.50178,104.7281 L83.68118,105.4153 L83.5702,105.9945 L83.17339,106.7227 L81.81728,108.7448 L81.44936,108.5076 z M82.30586,106.3639 C82.56793,106.3639 82.79019,106.2722 82.97266,106.0888 C83.15514,105.9053 83.24637,105.6839 83.24637,105.4244 C83.24637,105.1649 83.15464,104.9435 82.97119,104.76 C82.78774,104.5766 82.56527,104.4848 82.30377,104.4848 C82.0443,104.4848 81.82285,104.5766 81.6394,104.76 C81.45595,104.9435 81.36422,105.1649 81.36422,105.4244 C81.36422,105.6839 81.45615,105.9053 81.64001,106.0888 C81.82388,106.2722 82.04583,106.3639 82.30586,106.3639 z" stroke="Black" stroke-width="0" fill="#FFFFFF" fill-opacity="1.0" />
  <path d="M67.52726,113.1272 L76.47279,113.1272" stroke="#FFFFFF" stroke-width="0.48" fill-opacity="0" />
  <path d="M33.71442,66.64802 L33.89169,88.3332 L89.16505,88.3332 L143.2872,88.3332 L143.2872,85.7272 L142.2797,84.28994 L140.6961,81.99068 L139.5446,80.9848 L138.6811,78.54169 L137.5295,76.52997 L137.5295,74.51763 L135.3705,72.0751 L136.09,69.05692 L135.3705,63.02112 L135.6585,62.01524 L134.5147,61.92808 L134.363,56.2911 L131.6279,54.68619 L131.1964,51.0935 L131.1653,51.09323 L131.1964,50.66212 L132.06,48.36287 L131.1964,45.2014 L128.6054,42.03952 L128.0294,40.17149 L126.8778,36.00372 L126.8778,34.2794 L123.1352,32.84244 L121.9837,30.83041 L120.2567,29.39346 L116.5141,27.66879 L111.62,25.65692 L103.8473,25.36939 L102.4078,26.23184 L100.6808,27.66879 L96.07417,25.51309 L91.1669,21.9204 L0.7128951,21.9204 L0.7128951,66.64802 z" stroke="#FFFFFF" stroke-width="0.48" fill-opacity="0" />
</svg>